<svg xmlns="http://www.w3.org/2000/svg" viewBox="0 0 512 512">
  <defs>
    <linearGradient id="bg" x1="0" y1="0" x2="1" y2="1">
      <stop stop-color="#168fd1"/>
      <stop offset="1" stop-color="#08324e"/>
    </linearGradient>
    <linearGradient id="cloud" x1="0" y1="0" x2="0" y2="1">
      <stop stop-color="#fff"/>
      <stop offset="1" stop-color="#c9e9fa"/>
    </linearGradient>
  </defs>
  <rect width="512" height="512" rx="116" fill="url(#bg)"/>
  <circle cx="324" cy="185" r="92" fill="#ffd45c"/>
  <g stroke="#ffd45c" stroke-width="22" stroke-linecap="round">
    <path d="M324 58v31M324 281v31M197 185h31M420 185h31M234 95l22 22M392 253l22 22M234 275l22-22M392 117l22-22"/>
  </g>
  <path d="M123 354c-45 0-81-35-81-78 0-40 31-73 71-78 17-58 72-101 138-101 78 0 141 58 145 131 42 7 74 42 74 84 0 47-40 85-89 85H123c-1 0-1-43 0-43z" fill="url(#cloud)"/>
  <g stroke="#63c6ff" stroke-width="18" stroke-linecap="round">
    <path d="M154 426l-14 27M258 426l-14 27M362 426l-14 27"/>
  </g>
</svg>
